<svg width="28" height="43" fill="none" xmlns="http://www.w3.org/2000/svg"><path d="M13.888 18.624.313 21.085l5.094 19.986c.148.541.64.935 1.206.935h14.768c.566 0 1.059-.394 1.206-.935l5.095-19.986-13.794-2.461Zm-2.352-3.692c.68 0 1.23-.55 1.23-1.23V1.23a1.23 1.23 0 1 0-2.46 0V13.7c0 .68.55 1.23 1.23 1.23Zm4.923 0c.68 0 1.23-.55 1.23-1.23V1.23a1.23 1.23 0 1 0-2.461 0V13.7c0 .68.55 1.23 1.23 1.23Z" fill="url(#a)"/><defs><linearGradient id="a" x1="13.997" y1="42.006" x2="13.997" y2="0" gradientUnits="userSpaceOnUse"><stop stop-color="#FD3A84"/><stop offset="1" stop-color="#FFA68D"/></linearGradient></defs></svg>